<svg xmlns="http://www.w3.org/2000/svg" x="0px" y="0px" width="100" height="100" viewBox="0,0,256,256">
<g fill="none" fill-rule="nonzero" stroke="none" stroke-width="none" stroke-linecap="butt" stroke-linejoin="none" stroke-miterlimit="10" stroke-dasharray="" stroke-dashoffset="0" font-family="none" font-weight="none" font-size="none" text-anchor="none" style="mix-blend-mode: normal"><path transform="scale(5.12,5.12)" d="M48,25c0,12.683 -10.317,23 -23,23c-12.683,0 -23,-10.317 -23,-23c0,-12.683 10.317,-23 23,-23c12.683,0 23,10.317 23,23z" id="strokeMainSVG" fill="#00adb5" stroke="#00adb5" stroke-width="2" stroke-linejoin="round"></path><g transform="scale(5.12,5.12)" fill="#eeeeee" stroke="none" stroke-width="1" stroke-linejoin="miter"><path d="M25,2c-12.683,0 -23,10.317 -23,23c0,12.683 10.317,23 23,23c12.683,0 23,-10.317 23,-23c0,-12.683 -10.317,-23 -23,-23zM37,26h-11v11h-2v-11h-11v-2h11v-11h2v11h11z"></path></g></g>
</svg>